<svg width="187" height="60" viewBox="0 0 187 60" fill="none" xmlns="http://www.w3.org/2000/svg">
<rect width="60" height="60" fill="#FC0606"/>
<rect width="60" height="60" fill="#FC0606"/>
<ellipse cx="36.6832" cy="12.5732" rx="4.29389" ry="4.57317" fill="white"/>
<ellipse cx="36.6832" cy="12.5732" rx="4.29389" ry="4.57317" fill="white"/>
<ellipse cx="24.6603" cy="12.5732" rx="4.29389" ry="4.57317" fill="white"/>
<ellipse cx="24.6603" cy="12.5732" rx="4.29389" ry="4.57317" fill="white"/>
<path d="M34.1069 17.1463H27.2366V20.8049H34.1069V17.1463Z" fill="white"/>
<path d="M27.2366 17.1463H21.9604C21.9604 17.1463 8.14083 47.0079 8.00387 49.974C7.86691 52.9401 11.3944 54.1095 13.4503 49.974C15.5062 45.8384 21.9604 28.15 21.9604 28.15V49.974C21.9604 54.0087 27.2366 54.0087 27.2366 49.974V17.1463Z" fill="white"/>
<path d="M34.1069 50.0156V17.1463H39.2197V26.5113C39.2197 26.5113 50.468 46.3431 52.5132 50.0156C54.5583 53.6882 49.6159 53.3209 47.7412 50.0156C45.8665 46.7103 39.2197 35.1418 39.2197 35.1418V50.0156C39.2197 53.5046 34.1069 53.5046 34.1069 50.0156Z" fill="white"/>
<path d="M11.9462 24.6357C13.1802 23.1386 18.8212 16.9634 22.6993 17.1505C26.5775 17.3376 24.2859 21.2673 22.6993 20.3317C21.1128 19.3961 14.4142 25.9456 13.1802 27.0684C11.9462 28.1912 10.7123 26.1327 11.9462 24.6357Z" fill="white"/>
<path d="M44.2466 35.439C56.2129 19.9417 45.2208 16.8053 38.229 17.1743V20.4951C50.1954 20.3476 45.8513 28.1823 42.1834 32.1182L44.2466 35.439Z" fill="white"/>
<path d="M97.1035 35.3203H86.3809L83.9727 42H80.4922L90.2656 16.4062H93.2188L103.01 42H99.5469L97.1035 35.3203ZM87.4004 32.543H96.1016L91.7422 20.5723L87.4004 32.543ZM115.139 25.8984C114.646 25.8164 114.113 25.7754 113.539 25.7754C111.406 25.7754 109.959 26.6836 109.197 28.5V42H105.945V22.9805H109.109L109.162 25.1777C110.229 23.4785 111.74 22.6289 113.697 22.6289C114.33 22.6289 114.811 22.7109 115.139 22.875V25.8984ZM125.686 42.3516C123.107 42.3516 121.01 41.5078 119.393 39.8203C117.775 38.1211 116.967 35.8535 116.967 33.0176V32.4199C116.967 30.5332 117.324 28.8516 118.039 27.375C118.766 25.8867 119.773 24.7266 121.062 23.8945C122.363 23.0508 123.77 22.6289 125.281 22.6289C127.754 22.6289 129.676 23.4434 131.047 25.0723C132.418 26.7012 133.104 29.0332 133.104 32.0684V33.4219H120.219C120.266 35.2969 120.811 36.8145 121.854 37.9746C122.908 39.123 124.244 39.6973 125.861 39.6973C127.01 39.6973 127.982 39.4629 128.779 38.9941C129.576 38.5254 130.273 37.9043 130.871 37.1309L132.857 38.6777C131.264 41.127 128.873 42.3516 125.686 42.3516ZM125.281 25.3008C123.969 25.3008 122.867 25.7812 121.977 26.7422C121.086 27.6914 120.535 29.0273 120.324 30.75H129.852V30.5039C129.758 28.8516 129.312 27.5742 128.516 26.6719C127.719 25.7578 126.641 25.3008 125.281 25.3008ZM139.941 22.9805L140.029 25.0898C141.424 23.4492 143.305 22.6289 145.672 22.6289C148.332 22.6289 150.143 23.6484 151.104 25.6875C151.736 24.7734 152.557 24.0352 153.564 23.4727C154.584 22.9102 155.785 22.6289 157.168 22.6289C161.34 22.6289 163.461 24.8379 163.531 29.2559V42H160.279V29.4492C160.279 28.0898 159.969 27.0762 159.348 26.4082C158.727 25.7285 157.684 25.3887 156.219 25.3887C155.012 25.3887 154.01 25.752 153.213 26.4785C152.416 27.1934 151.953 28.1602 151.824 29.3789V42H148.555V29.5371C148.555 26.7715 147.201 25.3887 144.494 25.3887C142.361 25.3887 140.902 26.2969 140.117 28.1133V42H136.865V22.9805H139.941ZM167.592 32.3145C167.592 30.4512 167.955 28.7754 168.682 27.2871C169.42 25.7988 170.439 24.6504 171.74 23.8418C173.053 23.0332 174.547 22.6289 176.223 22.6289C178.812 22.6289 180.904 23.5254 182.498 25.3184C184.104 27.1113 184.906 29.4961 184.906 32.4727V32.7012C184.906 34.5527 184.549 36.2168 183.834 37.6934C183.131 39.1582 182.117 40.3008 180.793 41.1211C179.48 41.9414 177.969 42.3516 176.258 42.3516C173.68 42.3516 171.588 41.4551 169.982 39.6621C168.389 37.8691 167.592 35.4961 167.592 32.543V32.3145ZM170.861 32.7012C170.861 34.8105 171.348 36.5039 172.32 37.7812C173.305 39.0586 174.617 39.6973 176.258 39.6973C177.91 39.6973 179.223 39.0527 180.195 37.7637C181.168 36.4629 181.654 34.6465 181.654 32.3145C181.654 30.2285 181.156 28.541 180.16 27.252C179.176 25.9512 177.863 25.3008 176.223 25.3008C174.617 25.3008 173.322 25.9395 172.338 27.2168C171.354 28.4941 170.861 30.3223 170.861 32.7012Z" fill="black"/>
</svg>
