<svg width="238" height="60" viewBox="0 0 238 60" fill="none" xmlns="http://www.w3.org/2000/svg">
<rect width="60" height="60" fill="#FC0606"/>
<rect width="60" height="60" fill="#FC0606"/>
<path fill-rule="evenodd" clip-rule="evenodd" d="M30.25 0H29.75V29.75H0V30.25H29.75V60H30.25V30.25H60V29.75H30.25V0Z" fill="#6277A1" fill-opacity="0.1"/>
<ellipse cx="36.6832" cy="12.5732" rx="4.29389" ry="4.57317" fill="white"/>
<ellipse cx="36.6832" cy="12.5732" rx="4.29389" ry="4.57317" fill="white"/>
<ellipse cx="24.6603" cy="12.5732" rx="4.29389" ry="4.57317" fill="white"/>
<ellipse cx="24.6603" cy="12.5732" rx="4.29389" ry="4.57317" fill="white"/>
<path d="M34.1069 17.1463H27.2366V20.8049H34.1069V17.1463Z" fill="white"/>
<path d="M27.2366 17.1463H21.9604C21.9604 17.1463 8.14083 47.0079 8.00387 49.974C7.86691 52.9401 11.3944 54.1095 13.4503 49.974C15.5062 45.8384 21.9604 28.15 21.9604 28.15V49.974C21.9604 54.0087 27.2366 54.0087 27.2366 49.974V17.1463Z" fill="white"/>
<path d="M34.1069 50.0156V17.1463H39.2197V26.5113C39.2197 26.5113 50.468 46.3431 52.5132 50.0156C54.5583 53.6882 49.6159 53.3209 47.7412 50.0156C45.8665 46.7103 39.2197 35.1418 39.2197 35.1418V50.0156C39.2197 53.5046 34.1069 53.5046 34.1069 50.0156Z" fill="white"/>
<path d="M11.9462 24.6357C13.1802 23.1386 18.8212 16.9634 22.6993 17.1505C26.5775 17.3376 24.2859 21.2673 22.6993 20.3317C21.1128 19.3961 14.4142 25.9456 13.1802 27.0684C11.9462 28.1912 10.7123 26.1327 11.9462 24.6357Z" fill="white"/>
<path d="M44.2466 35.439C56.2129 19.9417 45.2208 16.8053 38.229 17.1743V20.4951C50.1954 20.3476 45.8513 28.1823 42.1834 32.1182L44.2466 35.439Z" fill="white"/>
<path d="M100.988 16.4062V33.8086C100.977 36.2227 100.215 38.1973 98.7031 39.7324C97.2031 41.2676 95.1641 42.1289 92.5859 42.3164L91.6895 42.3516C88.8887 42.3516 86.6562 41.5957 84.9922 40.084C83.3281 38.5723 82.4844 36.4922 82.4609 33.8438V16.4062H85.8008V33.7383C85.8008 35.5898 86.3105 37.0312 87.3301 38.0625C88.3496 39.082 89.8027 39.5918 91.6895 39.5918C93.5996 39.5918 95.0586 39.082 96.0664 38.0625C97.0859 37.043 97.5957 35.6074 97.5957 33.7559V16.4062H100.988ZM108.881 22.9805L108.986 25.3711C110.439 23.543 112.338 22.6289 114.682 22.6289C118.701 22.6289 120.729 24.8965 120.764 29.4316V42H117.512V29.4141C117.5 28.043 117.184 27.0293 116.562 26.373C115.953 25.7168 114.998 25.3887 113.697 25.3887C112.643 25.3887 111.717 25.6699 110.92 26.2324C110.123 26.7949 109.502 27.5332 109.057 28.4473V42H105.805V22.9805H108.881ZM134.861 25.8984C134.369 25.8164 133.836 25.7754 133.262 25.7754C131.129 25.7754 129.682 26.6836 128.92 28.5V42H125.668V22.9805H128.832L128.885 25.1777C129.951 23.4785 131.463 22.6289 133.42 22.6289C134.053 22.6289 134.533 22.7109 134.861 22.875V25.8984ZM145.408 42.3516C142.83 42.3516 140.732 41.5078 139.115 39.8203C137.498 38.1211 136.689 35.8535 136.689 33.0176V32.4199C136.689 30.5332 137.047 28.8516 137.762 27.375C138.488 25.8867 139.496 24.7266 140.785 23.8945C142.086 23.0508 143.492 22.6289 145.004 22.6289C147.477 22.6289 149.398 23.4434 150.77 25.0723C152.141 26.7012 152.826 29.0332 152.826 32.0684V33.4219H139.941C139.988 35.2969 140.533 36.8145 141.576 37.9746C142.631 39.123 143.967 39.6973 145.584 39.6973C146.732 39.6973 147.705 39.4629 148.502 38.9941C149.299 38.5254 149.996 37.9043 150.594 37.1309L152.58 38.6777C150.986 41.127 148.596 42.3516 145.408 42.3516ZM145.004 25.3008C143.691 25.3008 142.59 25.7812 141.699 26.7422C140.809 27.6914 140.258 29.0273 140.047 30.75H149.574V30.5039C149.48 28.8516 149.035 27.5742 148.238 26.6719C147.441 25.7578 146.363 25.3008 145.004 25.3008ZM159.664 22.9805L159.752 25.0898C161.146 23.4492 163.027 22.6289 165.395 22.6289C168.055 22.6289 169.865 23.6484 170.826 25.6875C171.459 24.7734 172.279 24.0352 173.287 23.4727C174.307 22.9102 175.508 22.6289 176.891 22.6289C181.062 22.6289 183.184 24.8379 183.254 29.2559V42H180.002V29.4492C180.002 28.0898 179.691 27.0762 179.07 26.4082C178.449 25.7285 177.406 25.3887 175.941 25.3887C174.734 25.3887 173.732 25.752 172.936 26.4785C172.139 27.1934 171.676 28.1602 171.547 29.3789V42H168.277V29.5371C168.277 26.7715 166.924 25.3887 164.217 25.3887C162.084 25.3887 160.625 26.2969 159.84 28.1133V42H156.588V22.9805H159.664ZM187.314 32.3145C187.314 30.4512 187.678 28.7754 188.404 27.2871C189.143 25.7988 190.162 24.6504 191.463 23.8418C192.775 23.0332 194.27 22.6289 195.945 22.6289C198.535 22.6289 200.627 23.5254 202.221 25.3184C203.826 27.1113 204.629 29.4961 204.629 32.4727V32.7012C204.629 34.5527 204.271 36.2168 203.557 37.6934C202.854 39.1582 201.84 40.3008 200.516 41.1211C199.203 41.9414 197.691 42.3516 195.98 42.3516C193.402 42.3516 191.311 41.4551 189.705 39.6621C188.111 37.8691 187.314 35.4961 187.314 32.543V32.3145ZM190.584 32.7012C190.584 34.8105 191.07 36.5039 192.043 37.7812C193.027 39.0586 194.34 39.6973 195.98 39.6973C197.633 39.6973 198.945 39.0527 199.918 37.7637C200.891 36.4629 201.377 34.6465 201.377 32.3145C201.377 30.2285 200.879 28.541 199.883 27.252C198.898 25.9512 197.586 25.3008 195.945 25.3008C194.34 25.3008 193.045 25.9395 192.061 27.2168C191.076 28.4941 190.584 30.3223 190.584 32.7012ZM213.119 18.375V22.9805H216.67V25.4941H213.119V37.2891C213.119 38.0508 213.277 38.625 213.594 39.0117C213.91 39.3867 214.449 39.5742 215.211 39.5742C215.586 39.5742 216.102 39.5039 216.758 39.3633V42C215.902 42.2344 215.07 42.3516 214.262 42.3516C212.809 42.3516 211.713 41.9121 210.975 41.0332C210.236 40.1543 209.867 38.9062 209.867 37.2891V25.4941H206.404V22.9805H209.867V18.375H213.119ZM228.377 42.3516C225.799 42.3516 223.701 41.5078 222.084 39.8203C220.467 38.1211 219.658 35.8535 219.658 33.0176V32.4199C219.658 30.5332 220.016 28.8516 220.73 27.375C221.457 25.8867 222.465 24.7266 223.754 23.8945C225.055 23.0508 226.461 22.6289 227.973 22.6289C230.445 22.6289 232.367 23.4434 233.738 25.0723C235.109 26.7012 235.795 29.0332 235.795 32.0684V33.4219H222.91C222.957 35.2969 223.502 36.8145 224.545 37.9746C225.6 39.123 226.936 39.6973 228.553 39.6973C229.701 39.6973 230.674 39.4629 231.471 38.9941C232.268 38.5254 232.965 37.9043 233.562 37.1309L235.549 38.6777C233.955 41.127 231.564 42.3516 228.377 42.3516ZM227.973 25.3008C226.66 25.3008 225.559 25.7812 224.668 26.7422C223.777 27.6914 223.227 29.0273 223.016 30.75H232.543V30.5039C232.449 28.8516 232.004 27.5742 231.207 26.6719C230.41 25.7578 229.332 25.3008 227.973 25.3008Z" fill="white"/>
</svg>
